<svg width="1080" height="1080" viewBox="0 0 1080 1080" fill="none" xmlns="http://www.w3.org/2000/svg">
<path d="M269.75 571.799C331.261 571.799 381.125 521.935 381.125 460.424C381.125 398.913 331.261 349.049 269.75 349.049C208.239 349.049 158.375 398.913 158.375 460.424C158.375 521.935 208.239 571.799 269.75 571.799Z" fill="#FFA726"/>
<path d="M47 768.563C47 768.563 109.37 628.23 269.75 628.23C430.13 628.23 492.5 768.563 492.5 768.563V842.07H47V768.563Z" fill="#455A64"/>
<path d="M1032.5 768.563C1032.5 768.563 970.13 628.23 809.75 628.23C649.37 628.23 587 768.563 587 768.563V842.07H1032.5V768.563Z" fill="#455A64"/>
<path d="M539.751 504.3C613.563 504.3 673.401 444.463 673.401 370.65C673.401 296.837 613.563 237 539.751 237C465.938 237 406.101 296.837 406.101 370.65C406.101 444.463 465.938 504.3 539.751 504.3Z" fill="#FFB74D"/>
<path d="M807.05 754.995C807.05 754.995 733.542 587.933 539.75 587.933C345.957 587.933 272.45 754.995 272.45 754.995V841.868H807.05V754.995Z" fill="#607D8B"/>
<path d="M809.75 571.799C871.261 571.799 921.125 521.935 921.125 460.424C921.125 398.913 871.261 349.049 809.75 349.049C748.239 349.049 698.375 398.913 698.375 460.424C698.375 521.935 748.239 571.799 809.75 571.799Z" fill="#FFA726"/>
<path d="M269.75 571.799C331.261 571.799 381.125 521.935 381.125 460.424C381.125 398.913 331.261 349.049 269.75 349.049C208.239 349.049 158.375 398.913 158.375 460.424C158.375 521.935 208.239 571.799 269.75 571.799Z" fill="#FFA726"/>
<path d="M809.75 571.799C871.261 571.799 921.125 521.935 921.125 460.424C921.125 398.913 871.261 349.049 809.75 349.049C748.239 349.049 698.375 398.913 698.375 460.424C698.375 521.935 748.239 571.799 809.75 571.799Z" fill="#FFA726"/>
</svg>
