<svg width="1080" height="1080" viewBox="0 0 1080 1080" fill="none" xmlns="http://www.w3.org/2000/svg">
<path d="M963.051 430.299H116.601V853.524H963.051V430.299Z" fill="#CFD8DC"/>
<path d="M963.051 855.889H116.601V944.989H963.051V855.889Z" fill="#B0BEC5"/>
<path d="M875.974 542.688H608.674V943.637H875.974V542.688Z" fill="#455A64"/>
<path d="M515.524 541.674H203.674V786.699H515.524V541.674Z" fill="#E3F2FD"/>
<path d="M493.251 563.951H225.951V764.426H493.251V563.951Z" fill="#1E88E5"/>
<path d="M821.301 754.976C814.618 754.976 810.163 759.431 810.163 766.113V810.663C810.163 817.346 814.618 821.801 821.301 821.801C827.983 821.801 832.438 817.346 832.438 810.663V766.113C832.438 759.431 827.983 754.976 821.301 754.976Z" fill="#90A4AE"/>
<path d="M539.825 494.761C576.731 494.761 606.65 464.843 606.65 427.936C606.65 391.03 576.731 361.111 539.825 361.111C502.919 361.111 473 391.03 473 427.936C473 464.843 502.919 494.761 539.825 494.761Z" fill="#558B2F"/>
<path d="M809.825 494.761C846.731 494.761 876.65 464.843 876.65 427.936C876.65 391.03 846.731 361.111 809.825 361.111C772.919 361.111 743 391.03 743 427.936C743 464.843 772.919 494.761 809.825 494.761Z" fill="#558B2F"/>
<path d="M269.825 494.761C306.731 494.761 336.65 464.843 336.65 427.936C336.65 391.03 306.731 361.111 269.825 361.111C232.919 361.111 203 391.03 203 427.936C203 464.843 232.919 494.761 269.825 494.761Z" fill="#558B2F"/>
<path d="M896.225 136H183.425C158.923 136 138.875 156.048 138.875 180.55V247.375H940.775V180.55C940.775 156.048 920.728 136 896.225 136Z" fill="#7CB342"/>
<path d="M606.65 249.062H473V427.263H606.65V249.062Z" fill="#7CB342"/>
<path d="M831.764 249.062H720.389L742.664 427.263H876.314L831.764 249.062Z" fill="#7CB342"/>
<path d="M247.887 249.062H359.262L336.987 427.263H203.337L247.887 249.062Z" fill="#7CB342"/>
<path d="M674.825 494.761C711.731 494.761 741.65 464.843 741.65 427.936C741.65 391.03 711.731 361.111 674.825 361.111C637.919 361.111 608 391.03 608 427.936C608 464.843 637.919 494.761 674.825 494.761Z" fill="#FFA000"/>
<path d="M1011.65 427.936C1011.65 465.804 982.693 494.761 944.825 494.761C906.958 494.761 878 465.804 878 427.936C878 390.069 906.958 361.111 944.825 361.111L1011.65 427.936Z" fill="#FFA000"/>
<path d="M404.825 494.761C441.731 494.761 471.65 464.843 471.65 427.936C471.65 391.03 441.731 361.111 404.825 361.111C367.919 361.111 338 391.03 338 427.936C338 464.843 367.919 494.761 404.825 494.761Z" fill="#FFA000"/>
<path d="M68 427.936C68 465.804 96.9575 494.761 134.825 494.761C172.693 494.761 201.65 465.804 201.65 427.936C201.65 390.069 172.693 361.111 134.825 361.111L68 427.936Z" fill="#FFA000"/>
<path d="M719.375 249.062H608V427.263H741.65L719.375 249.062Z" fill="#FFC107"/>
<path d="M944.826 249.062H833.451L878.001 427.263H1011.65L944.826 249.062Z" fill="#FFC107"/>
<path d="M360.275 249.062H471.65V427.263H338L360.275 249.062Z" fill="#FFC107"/>
<path d="M134.825 249.062H246.2L201.65 427.263H68L134.825 249.062Z" fill="#FFC107"/>
</svg>
