<svg width="1080" height="1080" viewBox="0 0 1080 1080" fill="none" xmlns="http://www.w3.org/2000/svg">
<path d="M1052.65 900.101H28V944.651H1052.65V900.101Z" fill="#FF9800"/>
<path d="M652.374 451.899H563.274V808.299H652.374V451.899Z" fill="#FF9800"/>
<path d="M787.374 451.899H698.274V808.299H787.374V451.899Z" fill="#FF9800"/>
<path d="M922.374 451.899H833.274V808.299H922.374V451.899Z" fill="#FF9800"/>
<path d="M517.374 451.899H428.274V808.299H517.374V451.899Z" fill="#FF9800"/>
<path d="M382.374 451.899H293.274V808.299H382.374V451.899Z" fill="#FF9800"/>
<path d="M247.374 451.899H158.274V808.299H247.374V451.899Z" fill="#FF9800"/>
<path d="M963.551 403.3H117.101V336.475L540.326 136L963.551 336.475V403.3Z" fill="#FF9800"/>
<path d="M963.551 810.326H117.101V854.876H963.551V810.326Z" fill="#FF9800"/>
<path d="M652.374 405.326H563.274V449.876H652.374V405.326Z" fill="#EF6C00"/>
<path d="M787.374 405.326H698.274V449.876H787.374V405.326Z" fill="#EF6C00"/>
<path d="M922.374 405.326H833.274V449.876H922.374V405.326Z" fill="#EF6C00"/>
<path d="M517.374 405.326H428.274V449.876H517.374V405.326Z" fill="#EF6C00"/>
<path d="M382.374 405.326H293.274V449.876H382.374V405.326Z" fill="#EF6C00"/>
<path d="M247.374 405.326H158.274V449.876H247.374V405.326Z" fill="#EF6C00"/>
<path d="M1008.1 854.875H72.5503V899.425H1008.1V854.875Z" fill="#EF6C00"/>
<path d="M540.324 337.149C564.929 337.149 584.874 317.203 584.874 292.599C584.874 267.995 564.929 248.049 540.324 248.049C515.72 248.049 495.774 267.995 495.774 292.599C495.774 317.203 515.72 337.149 540.324 337.149Z" fill="#EF6C00"/>
</svg>
