<svg width="1080" height="1080" viewBox="0 0 1080 1080" fill="none" xmlns="http://www.w3.org/2000/svg">
<path d="M896.276 205.751V161.201H695.801V272.576H539.876H339.401V517.601H183.476V562.151H339.401V807.176H539.876H695.801V918.551H896.276V874.001H740.351V695.801H896.276V651.251H695.801V762.626H539.876H383.951V317.126H539.876H695.801V428.501H896.276V383.951H740.351V205.751H896.276Z" fill="#CFD8DC"/>
<path d="M269.2 450.774H91V628.974H269.2V450.774Z" fill="#00BCD4"/>
<path d="M988.75 315.774H810.55V493.974H988.75V315.774Z" fill="#3F51B5"/>
<path d="M988.75 91H810.55V269.2H988.75V91Z" fill="#3F51B5"/>
<path d="M628.974 203.049H450.774V381.249H628.974V203.049Z" fill="#3F51B5"/>
<path d="M628.974 698.5H450.774V876.7H628.974V698.5Z" fill="#3F51B5"/>
<path d="M988.75 810.549H810.55V988.749H988.75V810.549Z" fill="#3F51B5"/>
<path d="M988.75 585.774H810.55V763.974H988.75V585.774Z" fill="#3F51B5"/>
</svg>
