<svg width="1080" height="1080" viewBox="0 0 1080 1080" fill="none" xmlns="http://www.w3.org/2000/svg">
<path d="M751.32 607.364C702.314 540.539 635.489 495.988 539.706 495.988C443.923 495.988 377.098 540.539 328.092 607.364H751.32Z" fill="#2196F3"/>
<path d="M764.686 965.791H314.728C290.226 965.791 272.406 947.971 270.178 923.469L252.358 633.892C252.358 609.389 272.406 587.114 296.908 587.114H782.506C809.236 587.114 829.284 609.389 827.056 633.892L809.236 923.469C807.008 947.971 789.188 965.791 764.686 965.791Z" fill="#546E7A"/>
<path d="M764.482 675.203C776.784 675.203 786.757 665.23 786.757 652.927C786.757 640.625 776.784 630.652 764.482 630.652C752.18 630.652 742.207 640.625 742.207 652.927C742.207 665.23 752.18 675.203 764.482 675.203Z" fill="#B0BEC5"/>
<path d="M539.706 448.402C638.124 448.402 717.907 368.619 717.907 270.201C717.907 171.783 638.124 92 539.706 92C441.289 92 361.505 171.783 361.505 270.201C361.505 368.619 441.289 448.402 539.706 448.402Z" fill="#FFB74D"/>
<path d="M361.04 953.426L336.537 977.928C323.172 991.293 300.897 991.293 287.532 977.928L214.024 904.42C200.659 891.055 200.659 868.78 214.024 855.415L238.526 830.913C267.484 801.955 307.579 801.955 336.537 830.913L361.04 855.415C387.77 884.373 387.77 926.696 361.04 953.426Z" fill="#FFB74D"/>
<path d="M718.151 855.415L742.654 830.913C771.611 801.955 811.707 801.955 840.664 830.913L865.167 855.415C878.532 868.78 878.532 891.055 865.167 904.42L791.659 977.928C778.294 991.293 756.019 991.293 742.654 977.928L718.151 953.426C691.421 926.696 691.421 884.373 718.151 855.415Z" fill="#FFB74D"/>
</svg>
