<svg width="1080" height="1080" viewBox="0 0 1080 1080" fill="none" xmlns="http://www.w3.org/2000/svg">
<path d="M607.326 137H473.676C435.808 137 406.851 165.957 406.851 203.825V270.65H451.401V203.825C451.401 190.46 460.311 181.55 473.676 181.55H607.326C620.691 181.55 629.601 190.46 629.601 203.825V270.65H674.151V203.825C674.151 165.957 645.193 137 607.326 137Z" fill="#424242"/>
<path d="M896.9 942.949H184.1C135.095 942.949 95 902.854 95 853.849V319.249C95 270.244 135.095 230.149 184.1 230.149H896.9C945.905 230.149 986 270.244 986 319.249V853.849C986 902.854 945.905 942.949 896.9 942.949Z" fill="#E65100"/>
<path d="M896.9 607.137H184.1C135.095 607.137 95 567.042 95 518.037V317.562C95 268.557 135.095 228.462 184.1 228.462H896.9C945.905 228.462 986 268.557 986 317.562V518.037C986 567.042 945.905 607.137 896.9 607.137Z" fill="#FF6E40"/>
<path d="M585.05 563.6H495.95C482.585 563.6 473.675 554.69 473.675 541.325V496.775C473.675 483.41 482.585 474.5 495.95 474.5H585.05C598.415 474.5 607.325 483.41 607.325 496.775V541.325C607.325 554.69 598.415 563.6 585.05 563.6Z" fill="#FFF3E0"/>
</svg>
