<svg width="1080" height="1080" viewBox="0 0 1080 1080" fill="none" xmlns="http://www.w3.org/2000/svg">
<path d="M909.843 820.055V485.928H820.742V820.055C820.742 931.431 909.843 1020.53 1021.22 1020.53V931.431C958.848 931.431 909.843 882.426 909.843 820.055Z" fill="#3F51B5"/>
<path d="M482.228 906.457C715.971 906.457 905.457 716.971 905.457 483.228C905.457 249.486 715.971 60 482.228 60C248.486 60 59 249.486 59 483.228C59 716.971 248.486 906.457 482.228 906.457Z" fill="#90A4AE"/>
<path d="M482.227 527.777C506.832 527.777 526.777 507.832 526.777 483.227C526.777 458.623 506.832 438.677 482.227 438.677C457.623 438.677 437.677 458.623 437.677 483.227C437.677 507.832 457.623 527.777 482.227 527.777Z" fill="#37474F"/>
<path d="M482.229 369.828C543.741 369.828 593.605 319.963 593.605 258.452C593.605 196.941 543.741 147.076 482.229 147.076C420.718 147.076 370.854 196.941 370.854 258.452C370.854 319.963 420.718 369.828 482.229 369.828Z" fill="#253278"/>
<path d="M482.229 819.382C543.741 819.382 593.605 769.517 593.605 708.006C593.605 646.495 543.741 596.63 482.229 596.63C420.718 596.63 370.854 646.495 370.854 708.006C370.854 769.517 420.718 819.382 482.229 819.382Z" fill="#253278"/>
<path d="M707.006 594.605C768.517 594.605 818.382 544.741 818.382 483.229C818.382 421.718 768.517 371.854 707.006 371.854C645.495 371.854 595.63 421.718 595.63 483.229C595.63 544.741 645.495 594.605 707.006 594.605Z" fill="#253278"/>
<path d="M257.452 594.605C318.963 594.605 368.828 544.741 368.828 483.229C368.828 421.718 318.963 371.854 257.452 371.854C195.941 371.854 146.076 421.718 146.076 483.229C146.076 544.741 195.941 594.605 257.452 594.605Z" fill="#253278"/>
</svg>
